%TF.GenerationSoftware,KiCad,Pcbnew,(5.1.10-1-10_14)*%
%TF.CreationDate,2022-03-08T11:01:30+00:00*%
%TF.ProjectId,The Card Tears Rounded,54686520-4361-4726-9420-546561727320,VERSION_HERE*%
%TF.SameCoordinates,Original*%
%TF.FileFunction,Legend,Top*%
%TF.FilePolarity,Positive*%
%FSLAX46Y46*%
G04 Gerber Fmt 4.6, Leading zero omitted, Abs format (unit mm)*
G04 Created by KiCad (PCBNEW (5.1.10-1-10_14)) date 2022-03-08 11:01:30*
%MOMM*%
%LPD*%
G01*
G04 APERTURE LIST*
%ADD10C,0.150000*%
G04 APERTURE END LIST*
D10*
X89077380Y21928571D02*
X89077380Y22500000D01*
X90077380Y22214285D02*
X89077380Y22214285D01*
X90077380Y22833333D02*
X89077380Y22833333D01*
X89553571Y22833333D02*
X89553571Y23404761D01*
X90077380Y23404761D02*
X89077380Y23404761D01*
X89553571Y23880952D02*
X89553571Y24214285D01*
X90077380Y24357142D02*
X90077380Y23880952D01*
X89077380Y23880952D01*
X89077380Y24357142D01*
X89982142Y26119047D02*
X90029761Y26071428D01*
X90077380Y25928571D01*
X90077380Y25833333D01*
X90029761Y25690476D01*
X89934523Y25595238D01*
X89839285Y25547619D01*
X89648809Y25500000D01*
X89505952Y25500000D01*
X89315476Y25547619D01*
X89220238Y25595238D01*
X89125000Y25690476D01*
X89077380Y25833333D01*
X89077380Y25928571D01*
X89125000Y26071428D01*
X89172619Y26119047D01*
X89791666Y26500000D02*
X89791666Y26976190D01*
X90077380Y26404761D02*
X89077380Y26738095D01*
X90077380Y27071428D01*
X90077380Y27976190D02*
X89601190Y27642857D01*
X90077380Y27404761D02*
X89077380Y27404761D01*
X89077380Y27785714D01*
X89125000Y27880952D01*
X89172619Y27928571D01*
X89267857Y27976190D01*
X89410714Y27976190D01*
X89505952Y27928571D01*
X89553571Y27880952D01*
X89601190Y27785714D01*
X89601190Y27404761D01*
X90077380Y28404761D02*
X89077380Y28404761D01*
X89077380Y28642857D01*
X89125000Y28785714D01*
X89220238Y28880952D01*
X89315476Y28928571D01*
X89505952Y28976190D01*
X89648809Y28976190D01*
X89839285Y28928571D01*
X89934523Y28880952D01*
X90029761Y28785714D01*
X90077380Y28642857D01*
X90077380Y28404761D01*
X91727380Y20071428D02*
X90727380Y20071428D01*
X91108333Y20071428D02*
X91060714Y20166666D01*
X91060714Y20357142D01*
X91108333Y20452380D01*
X91155952Y20500000D01*
X91251190Y20547619D01*
X91536904Y20547619D01*
X91632142Y20500000D01*
X91679761Y20452380D01*
X91727380Y20357142D01*
X91727380Y20166666D01*
X91679761Y20071428D01*
X91060714Y20880952D02*
X91727380Y21119047D01*
X91060714Y21357142D02*
X91727380Y21119047D01*
X91965476Y21023809D01*
X92013095Y20976190D01*
X92060714Y20880952D01*
X91203571Y22833333D02*
X91251190Y22976190D01*
X91298809Y23023809D01*
X91394047Y23071428D01*
X91536904Y23071428D01*
X91632142Y23023809D01*
X91679761Y22976190D01*
X91727380Y22880952D01*
X91727380Y22500000D01*
X90727380Y22500000D01*
X90727380Y22833333D01*
X90775000Y22928571D01*
X90822619Y22976190D01*
X90917857Y23023809D01*
X91013095Y23023809D01*
X91108333Y22976190D01*
X91155952Y22928571D01*
X91203571Y22833333D01*
X91203571Y22500000D01*
X91679761Y23880952D02*
X91727380Y23785714D01*
X91727380Y23595238D01*
X91679761Y23500000D01*
X91584523Y23452380D01*
X91203571Y23452380D01*
X91108333Y23500000D01*
X91060714Y23595238D01*
X91060714Y23785714D01*
X91108333Y23880952D01*
X91203571Y23928571D01*
X91298809Y23928571D01*
X91394047Y23452380D01*
X91060714Y24357142D02*
X91727380Y24357142D01*
X91155952Y24357142D02*
X91108333Y24404761D01*
X91060714Y24500000D01*
X91060714Y24642857D01*
X91108333Y24738095D01*
X91203571Y24785714D01*
X91727380Y24785714D01*
X90727380Y25880952D02*
X91727380Y26214285D01*
X90727380Y26547619D01*
X91727380Y27309523D02*
X91203571Y27309523D01*
X91108333Y27261904D01*
X91060714Y27166666D01*
X91060714Y26976190D01*
X91108333Y26880952D01*
X91679761Y27309523D02*
X91727380Y27214285D01*
X91727380Y26976190D01*
X91679761Y26880952D01*
X91584523Y26833333D01*
X91489285Y26833333D01*
X91394047Y26880952D01*
X91346428Y26976190D01*
X91346428Y27214285D01*
X91298809Y27309523D01*
X91727380Y27928571D02*
X91679761Y27833333D01*
X91584523Y27785714D01*
X90727380Y27785714D01*
X91727380Y28452380D02*
X91679761Y28357142D01*
X91584523Y28309523D01*
X90727380Y28309523D01*
X91727380Y29261904D02*
X91203571Y29261904D01*
X91108333Y29214285D01*
X91060714Y29119047D01*
X91060714Y28928571D01*
X91108333Y28833333D01*
X91679761Y29261904D02*
X91727380Y29166666D01*
X91727380Y28928571D01*
X91679761Y28833333D01*
X91584523Y28785714D01*
X91489285Y28785714D01*
X91394047Y28833333D01*
X91346428Y28928571D01*
X91346428Y29166666D01*
X91298809Y29261904D01*
X91679761Y30166666D02*
X91727380Y30071428D01*
X91727380Y29880952D01*
X91679761Y29785714D01*
X91632142Y29738095D01*
X91536904Y29690476D01*
X91251190Y29690476D01*
X91155952Y29738095D01*
X91108333Y29785714D01*
X91060714Y29880952D01*
X91060714Y30071428D01*
X91108333Y30166666D01*
X91727380Y30595238D02*
X90727380Y30595238D01*
X91346428Y30690476D02*
X91727380Y30976190D01*
X91060714Y30976190D02*
X91441666Y30595238D01*
%TO.C,MCU1*%
X85297619Y37238095D02*
X85030952Y37619047D01*
X84840476Y37238095D02*
X84840476Y38038095D01*
X85145238Y38038095D01*
X85221428Y38000000D01*
X85259523Y37961904D01*
X85297619Y37885714D01*
X85297619Y37771428D01*
X85259523Y37695238D01*
X85221428Y37657142D01*
X85145238Y37619047D01*
X84840476Y37619047D01*
X85602380Y37466666D02*
X85983333Y37466666D01*
X85526190Y37238095D02*
X85792857Y38038095D01*
X86059523Y37238095D01*
X86250000Y38038095D02*
X86440476Y37238095D01*
X86592857Y37809523D01*
X86745238Y37238095D01*
X86935714Y38038095D01*
X85190476Y36130000D02*
X85114285Y36168095D01*
X85000000Y36168095D01*
X84885714Y36130000D01*
X84809523Y36053809D01*
X84771428Y35977619D01*
X84733333Y35825238D01*
X84733333Y35710952D01*
X84771428Y35558571D01*
X84809523Y35482380D01*
X84885714Y35406190D01*
X85000000Y35368095D01*
X85076190Y35368095D01*
X85190476Y35406190D01*
X85228571Y35444285D01*
X85228571Y35710952D01*
X85076190Y35710952D01*
X85571428Y35368095D02*
X85571428Y36168095D01*
X86028571Y35368095D01*
X86028571Y36168095D01*
X86409523Y35368095D02*
X86409523Y36168095D01*
X86600000Y36168095D01*
X86714285Y36130000D01*
X86790476Y36053809D01*
X86828571Y35977619D01*
X86866666Y35825238D01*
X86866666Y35710952D01*
X86828571Y35558571D01*
X86790476Y35482380D01*
X86714285Y35406190D01*
X86600000Y35368095D01*
X86409523Y35368095D01*
X85361904Y32828095D02*
X85095238Y33209047D01*
X84904761Y32828095D02*
X84904761Y33628095D01*
X85209523Y33628095D01*
X85285714Y33590000D01*
X85323809Y33551904D01*
X85361904Y33475714D01*
X85361904Y33361428D01*
X85323809Y33285238D01*
X85285714Y33247142D01*
X85209523Y33209047D01*
X84904761Y33209047D01*
X85666666Y32866190D02*
X85780952Y32828095D01*
X85971428Y32828095D01*
X86047619Y32866190D01*
X86085714Y32904285D01*
X86123809Y32980476D01*
X86123809Y33056666D01*
X86085714Y33132857D01*
X86047619Y33170952D01*
X85971428Y33209047D01*
X85819047Y33247142D01*
X85742857Y33285238D01*
X85704761Y33323333D01*
X85666666Y33399523D01*
X85666666Y33475714D01*
X85704761Y33551904D01*
X85742857Y33590000D01*
X85819047Y33628095D01*
X86009523Y33628095D01*
X86123809Y33590000D01*
X86352380Y33628095D02*
X86809523Y33628095D01*
X86580952Y32828095D02*
X86580952Y33628095D01*
X84733333Y31088095D02*
X85000000Y30288095D01*
X85266666Y31088095D01*
X85990476Y30364285D02*
X85952380Y30326190D01*
X85838095Y30288095D01*
X85761904Y30288095D01*
X85647619Y30326190D01*
X85571428Y30402380D01*
X85533333Y30478571D01*
X85495238Y30630952D01*
X85495238Y30745238D01*
X85533333Y30897619D01*
X85571428Y30973809D01*
X85647619Y31050000D01*
X85761904Y31088095D01*
X85838095Y31088095D01*
X85952380Y31050000D01*
X85990476Y31011904D01*
X86790476Y30364285D02*
X86752380Y30326190D01*
X86638095Y30288095D01*
X86561904Y30288095D01*
X86447619Y30326190D01*
X86371428Y30402380D01*
X86333333Y30478571D01*
X86295238Y30630952D01*
X86295238Y30745238D01*
X86333333Y30897619D01*
X86371428Y30973809D01*
X86447619Y31050000D01*
X86561904Y31088095D01*
X86638095Y31088095D01*
X86752380Y31050000D01*
X86790476Y31011904D01*
X84828571Y27748095D02*
X84828571Y28548095D01*
X85133333Y28548095D01*
X85209523Y28510000D01*
X85247619Y28471904D01*
X85285714Y28395714D01*
X85285714Y28281428D01*
X85247619Y28205238D01*
X85209523Y28167142D01*
X85133333Y28129047D01*
X84828571Y28129047D01*
X85590476Y28471904D02*
X85628571Y28510000D01*
X85704761Y28548095D01*
X85895238Y28548095D01*
X85971428Y28510000D01*
X86009523Y28471904D01*
X86047619Y28395714D01*
X86047619Y28319523D01*
X86009523Y28205238D01*
X85552380Y27748095D01*
X86047619Y27748095D01*
X86809523Y27748095D02*
X86352380Y27748095D01*
X86580952Y27748095D02*
X86580952Y28548095D01*
X86504761Y28433809D01*
X86428571Y28357619D01*
X86352380Y28319523D01*
X84828571Y25208095D02*
X84828571Y26008095D01*
X85133333Y26008095D01*
X85209523Y25970000D01*
X85247619Y25931904D01*
X85285714Y25855714D01*
X85285714Y25741428D01*
X85247619Y25665238D01*
X85209523Y25627142D01*
X85133333Y25589047D01*
X84828571Y25589047D01*
X85590476Y25931904D02*
X85628571Y25970000D01*
X85704761Y26008095D01*
X85895238Y26008095D01*
X85971428Y25970000D01*
X86009523Y25931904D01*
X86047619Y25855714D01*
X86047619Y25779523D01*
X86009523Y25665238D01*
X85552380Y25208095D01*
X86047619Y25208095D01*
X86542857Y26008095D02*
X86619047Y26008095D01*
X86695238Y25970000D01*
X86733333Y25931904D01*
X86771428Y25855714D01*
X86809523Y25703333D01*
X86809523Y25512857D01*
X86771428Y25360476D01*
X86733333Y25284285D01*
X86695238Y25246190D01*
X86619047Y25208095D01*
X86542857Y25208095D01*
X86466666Y25246190D01*
X86428571Y25284285D01*
X86390476Y25360476D01*
X86352380Y25512857D01*
X86352380Y25703333D01*
X86390476Y25855714D01*
X86428571Y25931904D01*
X86466666Y25970000D01*
X86542857Y26008095D01*
X84828571Y22668095D02*
X84828571Y23468095D01*
X85133333Y23468095D01*
X85209523Y23430000D01*
X85247619Y23391904D01*
X85285714Y23315714D01*
X85285714Y23201428D01*
X85247619Y23125238D01*
X85209523Y23087142D01*
X85133333Y23049047D01*
X84828571Y23049047D01*
X86047619Y22668095D02*
X85590476Y22668095D01*
X85819047Y22668095D02*
X85819047Y23468095D01*
X85742857Y23353809D01*
X85666666Y23277619D01*
X85590476Y23239523D01*
X86428571Y22668095D02*
X86580952Y22668095D01*
X86657142Y22706190D01*
X86695238Y22744285D01*
X86771428Y22858571D01*
X86809523Y23010952D01*
X86809523Y23315714D01*
X86771428Y23391904D01*
X86733333Y23430000D01*
X86657142Y23468095D01*
X86504761Y23468095D01*
X86428571Y23430000D01*
X86390476Y23391904D01*
X86352380Y23315714D01*
X86352380Y23125238D01*
X86390476Y23049047D01*
X86428571Y23010952D01*
X86504761Y22972857D01*
X86657142Y22972857D01*
X86733333Y23010952D01*
X86771428Y23049047D01*
X86809523Y23125238D01*
X84828571Y20128095D02*
X84828571Y20928095D01*
X85133333Y20928095D01*
X85209523Y20890000D01*
X85247619Y20851904D01*
X85285714Y20775714D01*
X85285714Y20661428D01*
X85247619Y20585238D01*
X85209523Y20547142D01*
X85133333Y20509047D01*
X84828571Y20509047D01*
X86047619Y20128095D02*
X85590476Y20128095D01*
X85819047Y20128095D02*
X85819047Y20928095D01*
X85742857Y20813809D01*
X85666666Y20737619D01*
X85590476Y20699523D01*
X86504761Y20585238D02*
X86428571Y20623333D01*
X86390476Y20661428D01*
X86352380Y20737619D01*
X86352380Y20775714D01*
X86390476Y20851904D01*
X86428571Y20890000D01*
X86504761Y20928095D01*
X86657142Y20928095D01*
X86733333Y20890000D01*
X86771428Y20851904D01*
X86809523Y20775714D01*
X86809523Y20737619D01*
X86771428Y20661428D01*
X86733333Y20623333D01*
X86657142Y20585238D01*
X86504761Y20585238D01*
X86428571Y20547142D01*
X86390476Y20509047D01*
X86352380Y20432857D01*
X86352380Y20280476D01*
X86390476Y20204285D01*
X86428571Y20166190D01*
X86504761Y20128095D01*
X86657142Y20128095D01*
X86733333Y20166190D01*
X86771428Y20204285D01*
X86809523Y20280476D01*
X86809523Y20432857D01*
X86771428Y20509047D01*
X86733333Y20547142D01*
X86657142Y20585238D01*
X84828571Y17588095D02*
X84828571Y18388095D01*
X85133333Y18388095D01*
X85209523Y18350000D01*
X85247619Y18311904D01*
X85285714Y18235714D01*
X85285714Y18121428D01*
X85247619Y18045238D01*
X85209523Y18007142D01*
X85133333Y17969047D01*
X84828571Y17969047D01*
X86047619Y17588095D02*
X85590476Y17588095D01*
X85819047Y17588095D02*
X85819047Y18388095D01*
X85742857Y18273809D01*
X85666666Y18197619D01*
X85590476Y18159523D01*
X86771428Y18388095D02*
X86390476Y18388095D01*
X86352380Y18007142D01*
X86390476Y18045238D01*
X86466666Y18083333D01*
X86657142Y18083333D01*
X86733333Y18045238D01*
X86771428Y18007142D01*
X86809523Y17930952D01*
X86809523Y17740476D01*
X86771428Y17664285D01*
X86733333Y17626190D01*
X86657142Y17588095D01*
X86466666Y17588095D01*
X86390476Y17626190D01*
X86352380Y17664285D01*
X84828571Y15048095D02*
X84828571Y15848095D01*
X85133333Y15848095D01*
X85209523Y15810000D01*
X85247619Y15771904D01*
X85285714Y15695714D01*
X85285714Y15581428D01*
X85247619Y15505238D01*
X85209523Y15467142D01*
X85133333Y15429047D01*
X84828571Y15429047D01*
X86047619Y15048095D02*
X85590476Y15048095D01*
X85819047Y15048095D02*
X85819047Y15848095D01*
X85742857Y15733809D01*
X85666666Y15657619D01*
X85590476Y15619523D01*
X86733333Y15581428D02*
X86733333Y15048095D01*
X86542857Y15886190D02*
X86352380Y15314761D01*
X86847619Y15314761D01*
X84828571Y12508095D02*
X84828571Y13308095D01*
X85133333Y13308095D01*
X85209523Y13270000D01*
X85247619Y13231904D01*
X85285714Y13155714D01*
X85285714Y13041428D01*
X85247619Y12965238D01*
X85209523Y12927142D01*
X85133333Y12889047D01*
X84828571Y12889047D01*
X86047619Y12508095D02*
X85590476Y12508095D01*
X85819047Y12508095D02*
X85819047Y13308095D01*
X85742857Y13193809D01*
X85666666Y13117619D01*
X85590476Y13079523D01*
X86733333Y13308095D02*
X86580952Y13308095D01*
X86504761Y13270000D01*
X86466666Y13231904D01*
X86390476Y13117619D01*
X86352380Y12965238D01*
X86352380Y12660476D01*
X86390476Y12584285D01*
X86428571Y12546190D01*
X86504761Y12508095D01*
X86657142Y12508095D01*
X86733333Y12546190D01*
X86771428Y12584285D01*
X86809523Y12660476D01*
X86809523Y12850952D01*
X86771428Y12927142D01*
X86733333Y12965238D01*
X86657142Y13003333D01*
X86504761Y13003333D01*
X86428571Y12965238D01*
X86390476Y12927142D01*
X86352380Y12850952D01*
X84828571Y9968095D02*
X84828571Y10768095D01*
X85133333Y10768095D01*
X85209523Y10730000D01*
X85247619Y10691904D01*
X85285714Y10615714D01*
X85285714Y10501428D01*
X85247619Y10425238D01*
X85209523Y10387142D01*
X85133333Y10349047D01*
X84828571Y10349047D01*
X86047619Y9968095D02*
X85590476Y9968095D01*
X85819047Y9968095D02*
X85819047Y10768095D01*
X85742857Y10653809D01*
X85666666Y10577619D01*
X85590476Y10539523D01*
X86542857Y10768095D02*
X86619047Y10768095D01*
X86695238Y10730000D01*
X86733333Y10691904D01*
X86771428Y10615714D01*
X86809523Y10463333D01*
X86809523Y10272857D01*
X86771428Y10120476D01*
X86733333Y10044285D01*
X86695238Y10006190D01*
X86619047Y9968095D01*
X86542857Y9968095D01*
X86466666Y10006190D01*
X86428571Y10044285D01*
X86390476Y10120476D01*
X86352380Y10272857D01*
X86352380Y10463333D01*
X86390476Y10615714D01*
X86428571Y10691904D01*
X86466666Y10730000D01*
X86542857Y10768095D01*
X94428571Y37908095D02*
X94428571Y38708095D01*
X94733333Y38708095D01*
X94809523Y38670000D01*
X94847619Y38631904D01*
X94885714Y38555714D01*
X94885714Y38441428D01*
X94847619Y38365238D01*
X94809523Y38327142D01*
X94733333Y38289047D01*
X94428571Y38289047D01*
X95380952Y38708095D02*
X95457142Y38708095D01*
X95533333Y38670000D01*
X95571428Y38631904D01*
X95609523Y38555714D01*
X95647619Y38403333D01*
X95647619Y38212857D01*
X95609523Y38060476D01*
X95571428Y37984285D01*
X95533333Y37946190D01*
X95457142Y37908095D01*
X95380952Y37908095D01*
X95304761Y37946190D01*
X95266666Y37984285D01*
X95228571Y38060476D01*
X95190476Y38212857D01*
X95190476Y38403333D01*
X95228571Y38555714D01*
X95266666Y38631904D01*
X95304761Y38670000D01*
X95380952Y38708095D01*
X96409523Y37908095D02*
X95952380Y37908095D01*
X96180952Y37908095D02*
X96180952Y38708095D01*
X96104761Y38593809D01*
X96028571Y38517619D01*
X95952380Y38479523D01*
X94428571Y35368095D02*
X94428571Y36168095D01*
X94733333Y36168095D01*
X94809523Y36130000D01*
X94847619Y36091904D01*
X94885714Y36015714D01*
X94885714Y35901428D01*
X94847619Y35825238D01*
X94809523Y35787142D01*
X94733333Y35749047D01*
X94428571Y35749047D01*
X95380952Y36168095D02*
X95457142Y36168095D01*
X95533333Y36130000D01*
X95571428Y36091904D01*
X95609523Y36015714D01*
X95647619Y35863333D01*
X95647619Y35672857D01*
X95609523Y35520476D01*
X95571428Y35444285D01*
X95533333Y35406190D01*
X95457142Y35368095D01*
X95380952Y35368095D01*
X95304761Y35406190D01*
X95266666Y35444285D01*
X95228571Y35520476D01*
X95190476Y35672857D01*
X95190476Y35863333D01*
X95228571Y36015714D01*
X95266666Y36091904D01*
X95304761Y36130000D01*
X95380952Y36168095D01*
X96142857Y36168095D02*
X96219047Y36168095D01*
X96295238Y36130000D01*
X96333333Y36091904D01*
X96371428Y36015714D01*
X96409523Y35863333D01*
X96409523Y35672857D01*
X96371428Y35520476D01*
X96333333Y35444285D01*
X96295238Y35406190D01*
X96219047Y35368095D01*
X96142857Y35368095D01*
X96066666Y35406190D01*
X96028571Y35444285D01*
X95990476Y35520476D01*
X95952380Y35672857D01*
X95952380Y35863333D01*
X95990476Y36015714D01*
X96028571Y36091904D01*
X96066666Y36130000D01*
X96142857Y36168095D01*
X94790476Y33590000D02*
X94714285Y33628095D01*
X94600000Y33628095D01*
X94485714Y33590000D01*
X94409523Y33513809D01*
X94371428Y33437619D01*
X94333333Y33285238D01*
X94333333Y33170952D01*
X94371428Y33018571D01*
X94409523Y32942380D01*
X94485714Y32866190D01*
X94600000Y32828095D01*
X94676190Y32828095D01*
X94790476Y32866190D01*
X94828571Y32904285D01*
X94828571Y33170952D01*
X94676190Y33170952D01*
X95171428Y32828095D02*
X95171428Y33628095D01*
X95628571Y32828095D01*
X95628571Y33628095D01*
X96009523Y32828095D02*
X96009523Y33628095D01*
X96200000Y33628095D01*
X96314285Y33590000D01*
X96390476Y33513809D01*
X96428571Y33437619D01*
X96466666Y33285238D01*
X96466666Y33170952D01*
X96428571Y33018571D01*
X96390476Y32942380D01*
X96314285Y32866190D01*
X96200000Y32828095D01*
X96009523Y32828095D01*
X94790476Y31050000D02*
X94714285Y31088095D01*
X94600000Y31088095D01*
X94485714Y31050000D01*
X94409523Y30973809D01*
X94371428Y30897619D01*
X94333333Y30745238D01*
X94333333Y30630952D01*
X94371428Y30478571D01*
X94409523Y30402380D01*
X94485714Y30326190D01*
X94600000Y30288095D01*
X94676190Y30288095D01*
X94790476Y30326190D01*
X94828571Y30364285D01*
X94828571Y30630952D01*
X94676190Y30630952D01*
X95171428Y30288095D02*
X95171428Y31088095D01*
X95628571Y30288095D01*
X95628571Y31088095D01*
X96009523Y30288095D02*
X96009523Y31088095D01*
X96200000Y31088095D01*
X96314285Y31050000D01*
X96390476Y30973809D01*
X96428571Y30897619D01*
X96466666Y30745238D01*
X96466666Y30630952D01*
X96428571Y30478571D01*
X96390476Y30402380D01*
X96314285Y30326190D01*
X96200000Y30288095D01*
X96009523Y30288095D01*
X94428571Y27748095D02*
X94428571Y28548095D01*
X94733333Y28548095D01*
X94809523Y28510000D01*
X94847619Y28471904D01*
X94885714Y28395714D01*
X94885714Y28281428D01*
X94847619Y28205238D01*
X94809523Y28167142D01*
X94733333Y28129047D01*
X94428571Y28129047D01*
X95380952Y28548095D02*
X95457142Y28548095D01*
X95533333Y28510000D01*
X95571428Y28471904D01*
X95609523Y28395714D01*
X95647619Y28243333D01*
X95647619Y28052857D01*
X95609523Y27900476D01*
X95571428Y27824285D01*
X95533333Y27786190D01*
X95457142Y27748095D01*
X95380952Y27748095D01*
X95304761Y27786190D01*
X95266666Y27824285D01*
X95228571Y27900476D01*
X95190476Y28052857D01*
X95190476Y28243333D01*
X95228571Y28395714D01*
X95266666Y28471904D01*
X95304761Y28510000D01*
X95380952Y28548095D01*
X95952380Y28471904D02*
X95990476Y28510000D01*
X96066666Y28548095D01*
X96257142Y28548095D01*
X96333333Y28510000D01*
X96371428Y28471904D01*
X96409523Y28395714D01*
X96409523Y28319523D01*
X96371428Y28205238D01*
X95914285Y27748095D01*
X96409523Y27748095D01*
X94428571Y25208095D02*
X94428571Y26008095D01*
X94733333Y26008095D01*
X94809523Y25970000D01*
X94847619Y25931904D01*
X94885714Y25855714D01*
X94885714Y25741428D01*
X94847619Y25665238D01*
X94809523Y25627142D01*
X94733333Y25589047D01*
X94428571Y25589047D01*
X95380952Y26008095D02*
X95457142Y26008095D01*
X95533333Y25970000D01*
X95571428Y25931904D01*
X95609523Y25855714D01*
X95647619Y25703333D01*
X95647619Y25512857D01*
X95609523Y25360476D01*
X95571428Y25284285D01*
X95533333Y25246190D01*
X95457142Y25208095D01*
X95380952Y25208095D01*
X95304761Y25246190D01*
X95266666Y25284285D01*
X95228571Y25360476D01*
X95190476Y25512857D01*
X95190476Y25703333D01*
X95228571Y25855714D01*
X95266666Y25931904D01*
X95304761Y25970000D01*
X95380952Y26008095D01*
X95914285Y26008095D02*
X96409523Y26008095D01*
X96142857Y25703333D01*
X96257142Y25703333D01*
X96333333Y25665238D01*
X96371428Y25627142D01*
X96409523Y25550952D01*
X96409523Y25360476D01*
X96371428Y25284285D01*
X96333333Y25246190D01*
X96257142Y25208095D01*
X96028571Y25208095D01*
X95952380Y25246190D01*
X95914285Y25284285D01*
X94428571Y22668095D02*
X94428571Y23468095D01*
X94733333Y23468095D01*
X94809523Y23430000D01*
X94847619Y23391904D01*
X94885714Y23315714D01*
X94885714Y23201428D01*
X94847619Y23125238D01*
X94809523Y23087142D01*
X94733333Y23049047D01*
X94428571Y23049047D01*
X95380952Y23468095D02*
X95457142Y23468095D01*
X95533333Y23430000D01*
X95571428Y23391904D01*
X95609523Y23315714D01*
X95647619Y23163333D01*
X95647619Y22972857D01*
X95609523Y22820476D01*
X95571428Y22744285D01*
X95533333Y22706190D01*
X95457142Y22668095D01*
X95380952Y22668095D01*
X95304761Y22706190D01*
X95266666Y22744285D01*
X95228571Y22820476D01*
X95190476Y22972857D01*
X95190476Y23163333D01*
X95228571Y23315714D01*
X95266666Y23391904D01*
X95304761Y23430000D01*
X95380952Y23468095D01*
X96333333Y23201428D02*
X96333333Y22668095D01*
X96142857Y23506190D02*
X95952380Y22934761D01*
X96447619Y22934761D01*
X94428571Y20128095D02*
X94428571Y20928095D01*
X94733333Y20928095D01*
X94809523Y20890000D01*
X94847619Y20851904D01*
X94885714Y20775714D01*
X94885714Y20661428D01*
X94847619Y20585238D01*
X94809523Y20547142D01*
X94733333Y20509047D01*
X94428571Y20509047D01*
X95380952Y20928095D02*
X95457142Y20928095D01*
X95533333Y20890000D01*
X95571428Y20851904D01*
X95609523Y20775714D01*
X95647619Y20623333D01*
X95647619Y20432857D01*
X95609523Y20280476D01*
X95571428Y20204285D01*
X95533333Y20166190D01*
X95457142Y20128095D01*
X95380952Y20128095D01*
X95304761Y20166190D01*
X95266666Y20204285D01*
X95228571Y20280476D01*
X95190476Y20432857D01*
X95190476Y20623333D01*
X95228571Y20775714D01*
X95266666Y20851904D01*
X95304761Y20890000D01*
X95380952Y20928095D01*
X96371428Y20928095D02*
X95990476Y20928095D01*
X95952380Y20547142D01*
X95990476Y20585238D01*
X96066666Y20623333D01*
X96257142Y20623333D01*
X96333333Y20585238D01*
X96371428Y20547142D01*
X96409523Y20470952D01*
X96409523Y20280476D01*
X96371428Y20204285D01*
X96333333Y20166190D01*
X96257142Y20128095D01*
X96066666Y20128095D01*
X95990476Y20166190D01*
X95952380Y20204285D01*
X94428571Y17588095D02*
X94428571Y18388095D01*
X94733333Y18388095D01*
X94809523Y18350000D01*
X94847619Y18311904D01*
X94885714Y18235714D01*
X94885714Y18121428D01*
X94847619Y18045238D01*
X94809523Y18007142D01*
X94733333Y17969047D01*
X94428571Y17969047D01*
X95380952Y18388095D02*
X95457142Y18388095D01*
X95533333Y18350000D01*
X95571428Y18311904D01*
X95609523Y18235714D01*
X95647619Y18083333D01*
X95647619Y17892857D01*
X95609523Y17740476D01*
X95571428Y17664285D01*
X95533333Y17626190D01*
X95457142Y17588095D01*
X95380952Y17588095D01*
X95304761Y17626190D01*
X95266666Y17664285D01*
X95228571Y17740476D01*
X95190476Y17892857D01*
X95190476Y18083333D01*
X95228571Y18235714D01*
X95266666Y18311904D01*
X95304761Y18350000D01*
X95380952Y18388095D01*
X96333333Y18388095D02*
X96180952Y18388095D01*
X96104761Y18350000D01*
X96066666Y18311904D01*
X95990476Y18197619D01*
X95952380Y18045238D01*
X95952380Y17740476D01*
X95990476Y17664285D01*
X96028571Y17626190D01*
X96104761Y17588095D01*
X96257142Y17588095D01*
X96333333Y17626190D01*
X96371428Y17664285D01*
X96409523Y17740476D01*
X96409523Y17930952D01*
X96371428Y18007142D01*
X96333333Y18045238D01*
X96257142Y18083333D01*
X96104761Y18083333D01*
X96028571Y18045238D01*
X95990476Y18007142D01*
X95952380Y17930952D01*
X94428571Y15048095D02*
X94428571Y15848095D01*
X94733333Y15848095D01*
X94809523Y15810000D01*
X94847619Y15771904D01*
X94885714Y15695714D01*
X94885714Y15581428D01*
X94847619Y15505238D01*
X94809523Y15467142D01*
X94733333Y15429047D01*
X94428571Y15429047D01*
X95380952Y15848095D02*
X95457142Y15848095D01*
X95533333Y15810000D01*
X95571428Y15771904D01*
X95609523Y15695714D01*
X95647619Y15543333D01*
X95647619Y15352857D01*
X95609523Y15200476D01*
X95571428Y15124285D01*
X95533333Y15086190D01*
X95457142Y15048095D01*
X95380952Y15048095D01*
X95304761Y15086190D01*
X95266666Y15124285D01*
X95228571Y15200476D01*
X95190476Y15352857D01*
X95190476Y15543333D01*
X95228571Y15695714D01*
X95266666Y15771904D01*
X95304761Y15810000D01*
X95380952Y15848095D01*
X95914285Y15848095D02*
X96447619Y15848095D01*
X96104761Y15048095D01*
X94428571Y12508095D02*
X94428571Y13308095D01*
X94733333Y13308095D01*
X94809523Y13270000D01*
X94847619Y13231904D01*
X94885714Y13155714D01*
X94885714Y13041428D01*
X94847619Y12965238D01*
X94809523Y12927142D01*
X94733333Y12889047D01*
X94428571Y12889047D01*
X95380952Y13308095D02*
X95457142Y13308095D01*
X95533333Y13270000D01*
X95571428Y13231904D01*
X95609523Y13155714D01*
X95647619Y13003333D01*
X95647619Y12812857D01*
X95609523Y12660476D01*
X95571428Y12584285D01*
X95533333Y12546190D01*
X95457142Y12508095D01*
X95380952Y12508095D01*
X95304761Y12546190D01*
X95266666Y12584285D01*
X95228571Y12660476D01*
X95190476Y12812857D01*
X95190476Y13003333D01*
X95228571Y13155714D01*
X95266666Y13231904D01*
X95304761Y13270000D01*
X95380952Y13308095D01*
X96104761Y12965238D02*
X96028571Y13003333D01*
X95990476Y13041428D01*
X95952380Y13117619D01*
X95952380Y13155714D01*
X95990476Y13231904D01*
X96028571Y13270000D01*
X96104761Y13308095D01*
X96257142Y13308095D01*
X96333333Y13270000D01*
X96371428Y13231904D01*
X96409523Y13155714D01*
X96409523Y13117619D01*
X96371428Y13041428D01*
X96333333Y13003333D01*
X96257142Y12965238D01*
X96104761Y12965238D01*
X96028571Y12927142D01*
X95990476Y12889047D01*
X95952380Y12812857D01*
X95952380Y12660476D01*
X95990476Y12584285D01*
X96028571Y12546190D01*
X96104761Y12508095D01*
X96257142Y12508095D01*
X96333333Y12546190D01*
X96371428Y12584285D01*
X96409523Y12660476D01*
X96409523Y12812857D01*
X96371428Y12889047D01*
X96333333Y12927142D01*
X96257142Y12965238D01*
X94428571Y9968095D02*
X94428571Y10768095D01*
X94733333Y10768095D01*
X94809523Y10730000D01*
X94847619Y10691904D01*
X94885714Y10615714D01*
X94885714Y10501428D01*
X94847619Y10425238D01*
X94809523Y10387142D01*
X94733333Y10349047D01*
X94428571Y10349047D01*
X95380952Y10768095D02*
X95457142Y10768095D01*
X95533333Y10730000D01*
X95571428Y10691904D01*
X95609523Y10615714D01*
X95647619Y10463333D01*
X95647619Y10272857D01*
X95609523Y10120476D01*
X95571428Y10044285D01*
X95533333Y10006190D01*
X95457142Y9968095D01*
X95380952Y9968095D01*
X95304761Y10006190D01*
X95266666Y10044285D01*
X95228571Y10120476D01*
X95190476Y10272857D01*
X95190476Y10463333D01*
X95228571Y10615714D01*
X95266666Y10691904D01*
X95304761Y10730000D01*
X95380952Y10768095D01*
X96028571Y9968095D02*
X96180952Y9968095D01*
X96257142Y10006190D01*
X96295238Y10044285D01*
X96371428Y10158571D01*
X96409523Y10310952D01*
X96409523Y10615714D01*
X96371428Y10691904D01*
X96333333Y10730000D01*
X96257142Y10768095D01*
X96104761Y10768095D01*
X96028571Y10730000D01*
X95990476Y10691904D01*
X95952380Y10615714D01*
X95952380Y10425238D01*
X95990476Y10349047D01*
X96028571Y10310952D01*
X96104761Y10272857D01*
X96257142Y10272857D01*
X96333333Y10310952D01*
X96371428Y10349047D01*
X96409523Y10425238D01*
%TO.C,*%
%TD*%
M02*
