M48
; DRILL file {KiCad (5.1.10-1-10_14)} date Tuesday, March 08, 2022 at 11:01:25 AM
; FORMAT={-:-/ absolute / inch / decimal}
; #@! TF.CreationDate,2022-03-08T11:01:25+00:00
; #@! TF.GenerationSoftware,Kicad,Pcbnew,(5.1.10-1-10_14)
; #@! TF.FileFunction,Plated,1,2,PTH
FMAT,2
INCH
T1C0.0118
T2C0.0430
T3C0.0500
%
G90
G05
T1
X3.4646Y1.4567
X3.5433Y1.4567
X3.7402Y1.5945
X3.8189Y1.5945
T2
X3.2669Y1.5067
X3.2669Y1.4067
X3.2669Y1.3067
X3.2669Y1.2067
X3.2669Y1.1067
X3.2669Y1.0067
X3.2669Y0.9067
X3.2669Y0.8067
X3.2669Y0.7067
X3.2669Y0.6067
X3.2669Y0.5067
X3.2669Y0.4067
X3.4874Y0.3543
X3.615Y0.3543
X3.8669Y1.5067
X3.8669Y1.4067
X3.8669Y1.3067
X3.8669Y1.2067
X3.8669Y1.1067
X3.8669Y1.0067
X3.8669Y0.9067
X3.8669Y0.8067
X3.8669Y0.7067
X3.8669Y0.6067
X3.8669Y0.5067
X3.8669Y0.4067
T3
X0.5118Y1.189
X0.5118Y0.5197
X0.5118Y-0.1496
X0.7087Y1.1063
X0.7087Y1.1063
X0.7087Y0.437
X0.7087Y0.437
X0.7087Y-0.2323
X0.7087Y-0.2323
X0.9055Y1.189
X0.9055Y0.5197
X0.9055Y-0.1496
X1.2205Y1.189
X1.2205Y0.5197
X1.2205Y-0.1496
X1.4173Y1.1063
X1.4173Y1.1063
X1.4173Y0.437
X1.4173Y0.437
X1.4173Y-0.2323
X1.4173Y-0.2323
X1.6142Y1.189
X1.6142Y0.5197
X1.6142Y-0.1496
X1.9291Y1.189
X1.9291Y0.5197
X1.9291Y-0.1496
X2.126Y1.1063
X2.126Y1.1063
X2.126Y0.437
X2.126Y0.437
X2.126Y-0.2323
X2.126Y-0.2323
X2.3228Y1.189
X2.3228Y0.5197
X2.3228Y-0.1496
X2.6378Y1.189
X2.6378Y0.5197
X2.6378Y-0.1496
X2.8346Y1.1063
X2.8346Y1.1063
X2.8346Y0.437
X2.8346Y0.437
X2.8346Y-0.2323
X2.8346Y-0.2323
X3.0315Y1.189
X3.0315Y0.5197
X3.0315Y-0.1496
X3.3465Y-0.1496
X3.5433Y-0.2323
X3.5433Y-0.2323
X3.7402Y-0.1496
T0
M30
